<svg width="20" height="20" viewBox="0 0 20 20" fill="none" xmlns="http://www.w3.org/2000/svg">
<g clip-path="url(#clip0_12_206)">
<path d="M5.85336 1.92501C6.47917 2.137 7.07451 2.43005 7.6242 2.79668C8.40051 2.59827 9.19876 2.49859 10 2.50001C10.8275 2.50001 11.6259 2.60334 12.3742 2.79584C12.9237 2.42957 13.5187 2.13681 14.1442 1.92501C14.725 1.72751 15.5525 1.40751 16.0442 1.95168C16.3775 2.32168 16.4609 2.94168 16.52 3.41501C16.5867 3.94334 16.6025 4.63168 16.4275 5.31501C17.0967 6.17918 17.5 7.21001 17.5 8.33334C17.5 10.035 16.5784 11.5125 15.2142 12.5358C14.5577 13.0221 13.8295 13.4033 13.0559 13.6658C13.2342 14.0742 13.3334 14.5258 13.3334 15V17.5C13.3334 17.721 13.2456 17.933 13.0893 18.0893C12.933 18.2455 12.721 18.3333 12.5 18.3333H7.50003C7.27901 18.3333 7.06705 18.2455 6.91077 18.0893C6.75449 17.933 6.6667 17.721 6.6667 17.5V16.6742C5.87086 16.7717 5.20336 16.685 4.63586 16.4442C4.04253 16.1925 3.62919 15.8025 3.31836 15.4292C3.02336 15.0758 2.70169 14.2792 2.23669 14.1242C2.13284 14.0896 2.03682 14.0349 1.9541 13.9632C1.87139 13.8915 1.8036 13.8042 1.75462 13.7063C1.65569 13.5086 1.63935 13.2798 1.7092 13.07C1.77904 12.8603 1.92933 12.6869 2.12703 12.5879C2.32472 12.489 2.55362 12.4727 2.76336 12.5425C3.31836 12.7275 3.68003 13.1275 3.92753 13.4492C4.32753 13.9658 4.65253 14.6408 5.28586 14.91C5.54669 15.0208 5.92919 15.0933 6.52753 15.0117L6.6667 14.9833C6.66829 14.5298 6.76273 14.0815 6.9442 13.6658C6.17052 13.4034 5.44237 13.0221 4.78586 12.5358C3.42169 11.5125 2.50003 10.0358 2.50003 8.33334C2.50003 7.21168 2.90253 6.18168 3.57003 5.31834C3.39503 4.63501 3.41003 3.94501 3.47669 3.41584L3.48086 3.38418C3.54169 2.89918 3.61253 2.32834 3.95253 1.95168C4.4442 1.40751 5.27253 1.72834 5.85253 1.92584L5.85336 1.92501Z" fill="black"/>
</g>
<defs>
<clipPath id="clip0_12_206">
<rect width="20" height="20" fill="white"/>
</clipPath>
</defs>
</svg>
