<svg width="20" height="20" viewBox="0 0 20 20" fill="none" xmlns="http://www.w3.org/2000/svg">
<path d="M5.78353 4.16668C5.78331 4.6087 5.6075 5.03254 5.29478 5.34494C4.98207 5.65735 4.55806 5.83273 4.11603 5.83251C3.674 5.83229 3.25017 5.65648 2.93776 5.34377C2.62536 5.03105 2.44997 4.60704 2.4502 4.16501C2.45042 3.72298 2.62622 3.29915 2.93894 2.98674C3.25166 2.67434 3.67567 2.49896 4.1177 2.49918C4.55972 2.4994 4.98356 2.6752 5.29596 2.98792C5.60837 3.30064 5.78375 3.72465 5.78353 4.16668ZM5.83353 7.06668H2.5002V17.5H5.83353V7.06668ZM11.1002 7.06668H7.78353V17.5H11.0669V12.025C11.0669 8.97501 15.0419 8.69168 15.0419 12.025V17.5H18.3335V10.8917C18.3335 5.75001 12.4502 5.94168 11.0669 8.46668L11.1002 7.06668Z" fill="black"/>
</svg>
