<svg xmlns="http://www.w3.org/2000/svg" xmlns:xlink="http://www.w3.org/1999/xlink" viewBox="0 0 14.46 12.39"><defs><style>.cls-1{fill:none;}.cls-2{clip-path:url(#clip-path);}</style><clipPath id="clip-path" transform="translate(-2.77 -3.81)"><rect class="cls-1" width="20" height="20"/></clipPath></defs><title>Asset 2logo</title><g id="Layer_2" data-name="Layer 2"><g id="Layer_1-2" data-name="Layer 1"><g id="Logo"><g class="cls-2"><path d="M13.33,3.81v1.3L10.9,9a.21.21,0,0,1,0,.06L8.68,12.52a.24.24,0,0,1-.21.15H7.62a.22.22,0,0,1-.2-.15L4.8,7.64v8.55h-2V3.81h2A.22.22,0,0,1,5,4l2.83,5a.22.22,0,0,0,.41,0L11.1,4a.22.22,0,0,1,.2-.14Z" transform="translate(-2.77 -3.81)"/><rect x="12.43" y="10.49" width="2.03" height="1.9"/><polygon points="8.53 8.86 10.56 5.62 10.56 12.39 8.53 12.39 8.53 8.86"/></g></g></g></g></svg>